# xmcd CD database file
#
# Track frame offsets:
#	150
#	11805
#	24662
#	35227
#	47220
#	58675
#	71817
#	84317
#	94167
#	106047
#	119662
#	131874
#	142834
#	155497
#	165546
#	179337
#	189674
#	199870
#	211144
#	220560
#	236216
#	249093
#	260190
#	271588
#	283178
#	300103
#	309378
#	322096
#	332281
#	345116
#
# Disc length: 4785 seconds
#
# Revision: 0
# Processed by: cddbd v1.5.1PL0 Copyright (c) Steve Scherf et al.
# Submitted via: CDex 1.51
#
DISCID=b012af1e
DTITLE=Patsy Cline - Ultimate
DYEAR=1900
DGENRE=Country
TTITLE0=Patsy Cline - I've Loved And Lost Again
TTITLE1=Patsy Cline - Yes, I Understand
TTITLE2=Patsy Cline - I Love You, Honey
TTITLE3=Patsy Cline - Today, Tomorrow And Forever
TTITLE4=Patsy Cline - That Wonderful Someone
TTITLE5=Patsy Cline - Imagine That
TTITLE6=Patsy Cline - Crazy
TTITLE7=Patsy Cline - Heartaches
TTITLE8=Patsy Cline - Sweet Dreams (Of You)
TTITLE9=Patsy Cline - She's Got You
TTITLE10=Patsy Cline - He Called Me Baby
TTITLE11=Patsy Cline - Love Letters In The Sand
TTITLE12=08 - Bill Bailey Won't You Please Come Home 1963
TTITLE13=09 - Have You Ever Been Lonely 1961
TTITLE14=10 - That's My Desire 1962
TTITLE15=Patsy Cline - That's How A Heartache Begins
TTITLE16=13 - I Love You So Much It Hurts 1961
TTITLE17=14 - Half As Much 1962
TTITLE18=15 - Back In Baby's Arms 1962
TTITLE19=18 - Why Can't He Be You 1962
TTITLE20=Patsy Cline - I Fall To Pieces
TTITLE21=Patsy Cline - Leavin' On Your Mind
TTITLE22=Patsy Cline - Crazy Dreams
TTITLE23=Patsy Cline - Your Kinda Love
TTITLE24=Patsy Cline - Faded Love
TTITLE25=Patsy Cline - Walkin' After Midnight
TTITLE26=Patsy Cline - Just A Closer Walk With Thee
TTITLE27=Patsy Cline - Strange
TTITLE28=Patsy Cline - When You Need A Laugh
TTITLE29=Patsy Cline - So Wrong
EXTD=
EXTT0=
EXTT1=
EXTT2=
EXTT3=
EXTT4=
EXTT5=
EXTT6=
EXTT7=
EXTT8=
EXTT9=
EXTT10=
EXTT11=
EXTT12=
EXTT13=
EXTT14=
EXTT15=
EXTT16=
EXTT17=
EXTT18=
EXTT19=
EXTT20=
EXTT21=
EXTT22=
EXTT23=
EXTT24=
EXTT25=
EXTT26=
EXTT27=
EXTT28=
EXTT29=
PLAYORDER=
